# File produced by Open Asset Import Library (http://www.assimp.sf.net)
# (assimp v3.0.1262)

mtllib VizWedge.stl.obj.mtl

# 156 vertex positions
v  -15.2979 0.667922 0
v  0 0 0
v  -15.3125 0 0
v  0 0 0
v  -15.2979 0.667922 0
v  -15.2542 1.33457 0
v  0 0 0
v  -15.2542 1.33457 0
v  -15.1815 1.99868 0
v  0 0 0
v  -15.1815 1.99868 0
v  -15.0799 2.65899 0
v  0 0 0
v  -15.0799 2.65899 0
v  -14.9495 3.31423 0
v  0 0 0
v  -14.9495 3.31423 0
v  -14.7907 3.96317 0
v  0 0 0
v  -14.7907 3.96317 0
v  -14.6038 4.60456 0
v  0 0 0
v  -14.6038 4.60456 0
v  -14.389 5.23718 0
v  0 0 0
v  -14.389 5.23718 0
v  -14.1469 5.85984 0
v  0 0 0
v  -14.1469 5.85984 0
v  -13.8778 6.47134 0
v  0 0 0
v  -13.8778 6.47134 0
v  -13.5824 7.07053 0
v  0 0 0
v  -13.5824 7.07053 0
v  -13.261 7.65625 0
v  0 0 1.4375
v  -15.2979 0.667922 1.4375
v  -15.3125 0 1.4375
v  -15.2979 0.667922 1.4375
v  0 0 1.4375
v  -15.2542 1.33457 1.4375
v  -15.2542 1.33457 1.4375
v  0 0 1.4375
v  -15.1815 1.99868 1.4375
v  -15.1815 1.99868 1.4375
v  0 0 1.4375
v  -15.0799 2.65899 1.4375
v  -15.0799 2.65899 1.4375
v  0 0 1.4375
v  -14.9495 3.31423 1.4375
v  -14.9495 3.31423 1.4375
v  0 0 1.4375
v  -14.7907 3.96317 1.4375
v  -14.7907 3.96317 1.4375
v  0 0 1.4375
v  -14.6038 4.60456 1.4375
v  -14.6038 4.60456 1.4375
v  0 0 1.4375
v  -14.389 5.23718 1.4375
v  -14.389 5.23718 1.4375
v  0 0 1.4375
v  -14.1469 5.85984 1.4375
v  -14.1469 5.85984 1.4375
v  0 0 1.4375
v  -13.8778 6.47134 1.4375
v  -13.8778 6.47134 1.4375
v  0 0 1.4375
v  -13.5824 7.07053 1.4375
v  -13.5824 7.07053 1.4375
v  0 0 1.4375
v  -13.261 7.65625 1.4375
v  -14.389 5.23718 1.4375
v  -14.6038 4.60456 0
v  -14.6038 4.60456 1.4375
v  -14.6038 4.60456 0
v  -14.389 5.23718 1.4375
v  -14.389 5.23718 0
v  -14.1469 5.85984 1.4375
v  -14.389 5.23718 0
v  -14.389 5.23718 1.4375
v  -14.389 5.23718 0
v  -14.1469 5.85984 1.4375
v  -14.1469 5.85984 0
v  -13.8778 6.47134 1.4375
v  -14.1469 5.85984 0
v  -14.1469 5.85984 1.4375
v  -14.1469 5.85984 0
v  -13.8778 6.47134 1.4375
v  -13.8778 6.47134 0
v  -13.5824 7.07053 1.4375
v  -13.8778 6.47134 0
v  -13.8778 6.47134 1.4375
v  -13.8778 6.47134 0
v  -13.5824 7.07053 1.4375
v  -13.5824 7.07053 0
v  -13.261 7.65625 1.4375
v  -13.5824 7.07053 0
v  -13.5824 7.07053 1.4375
v  -13.5824 7.07053 0
v  -13.261 7.65625 1.4375
v  -13.261 7.65625 0
v  -13.261 7.65625 1.4375
v  0 0 0
v  -13.261 7.65625 0
v  0 0 0
v  -13.261 7.65625 1.4375
v  0 0 1.4375
v  0 0 1.4375
v  -15.3125 0 0
v  0 0 0
v  -15.3125 0 0
v  0 0 1.4375
v  -15.3125 0 1.4375
v  -15.2979 0.667922 1.4375
v  -15.3125 0 0
v  -15.3125 0 1.4375
v  -15.3125 0 0
v  -15.2979 0.667922 1.4375
v  -15.2979 0.667922 0
v  -15.2542 1.33457 1.4375
v  -15.2979 0.667922 0
v  -15.2979 0.667922 1.4375
v  -15.2979 0.667922 0
v  -15.2542 1.33457 1.4375
v  -15.2542 1.33457 0
v  -15.1815 1.99868 1.4375
v  -15.2542 1.33457 0
v  -15.2542 1.33457 1.4375
v  -15.2542 1.33457 0
v  -15.1815 1.99868 1.4375
v  -15.1815 1.99868 0
v  -15.0799 2.65899 1.4375
v  -15.1815 1.99868 0
v  -15.1815 1.99868 1.4375
v  -15.1815 1.99868 0
v  -15.0799 2.65899 1.4375
v  -15.0799 2.65899 0
v  -14.9495 3.31423 1.4375
v  -15.0799 2.65899 0
v  -15.0799 2.65899 1.4375
v  -15.0799 2.65899 0
v  -14.9495 3.31423 1.4375
v  -14.9495 3.31423 0
v  -14.7907 3.96317 1.4375
v  -14.9495 3.31423 0
v  -14.9495 3.31423 1.4375
v  -14.9495 3.31423 0
v  -14.7907 3.96317 1.4375
v  -14.7907 3.96317 0
v  -14.6038 4.60456 1.4375
v  -14.7907 3.96317 0
v  -14.7907 3.96317 1.4375
v  -14.7907 3.96317 0
v  -14.6038 4.60456 1.4375
v  -14.6038 4.60456 0

# 0 UV coordinates

# 156 vertex normals
vn 0 0 -1
vn 0 0 -1
vn 0 0 -1
vn 0 0 -1
vn 0 0 -1
vn 0 0 -1
vn 0 0 -1
vn 0 0 -1
vn 0 0 -1
vn 0 0 -1
vn 0 0 -1
vn 0 0 -1
vn 0 0 -1
vn 0 0 -1
vn 0 0 -1
vn 0 0 -1
vn 0 0 -1
vn 0 0 -1
vn 0 0 -1
vn 0 0 -1
vn 0 0 -1
vn 0 0 -1
vn 0 0 -1
vn 0 0 -1
vn 0 0 -1
vn 0 0 -1
vn 0 0 -1
vn 0 0 -1
vn 0 0 -1
vn 0 0 -1
vn 0 0 -1
vn 0 0 -1
vn 0 0 -1
vn 0 0 -1
vn 0 0 -1
vn 0 0 -1
vn 0 0 1
vn 0 0 1
vn 0 0 1
vn 0 0 1
vn 0 0 1
vn 0 0 1
vn 0 0 1
vn 0 0 1
vn 0 0 1
vn 0 0 1
vn 0 0 1
vn 0 0 1
vn 0 0 1
vn 0 0 1
vn 0 0 1
vn 0 0 1
vn 0 0 1
vn 0 0 1
vn 0 0 1
vn 0 0 1
vn 0 0 1
vn 0 0 1
vn 0 0 1
vn 0 0 1
vn 0 0 1
vn 0 0 1
vn 0 0 1
vn 0 0 1
vn 0 0 1
vn 0 0 1
vn 0 0 1
vn 0 0 1
vn 0 0 1
vn 0 0 1
vn 0 0 1
vn 0 0 1
vn -0.94693 0.321439 0
vn -0.94693 0.321439 0
vn -0.94693 0.321439 0
vn -0.94693 0.321439 0
vn -0.94693 0.321439 0
vn -0.94693 0.321439 0
vn -0.932008 0.362438 0
vn -0.932008 0.362438 0
vn -0.932008 0.362438 0
vn -0.932008 0.362438 0
vn -0.932008 0.362438 0
vn -0.932008 0.362438 0
vn -0.915311 0.402747 0
vn -0.915311 0.402747 0
vn -0.915311 0.402747 0
vn -0.915311 0.402747 0
vn -0.915311 0.402747 0
vn -0.915311 0.402747 0
vn -0.896873 0.442289 0
vn -0.896873 0.442289 0
vn -0.896873 0.442289 0
vn -0.896873 0.442289 0
vn -0.896873 0.442289 0
vn -0.896873 0.442289 0
vn -0.876727 0.480989 0
vn -0.876727 0.480989 0
vn -0.876727 0.480989 0
vn -0.876727 0.480989 0
vn -0.876727 0.480989 0
vn -0.876727 0.480989 0
vn 0.5 0.866025 0
vn 0.5 0.866025 0
vn 0.5 0.866025 0
vn 0.5 0.866025 0
vn 0.5 0.866025 0
vn 0.5 0.866025 0
vn -0 -1 -0
vn -0 -1 -0
vn -0 -1 -0
vn -0 -1 -0
vn -0 -1 -0
vn -0 -1 -0
vn -0.999762 0.0218149 0
vn -0.999762 0.0218149 0
vn -0.999762 0.0218149 0
vn -0.999762 0.0218149 0
vn -0.999762 0.0218149 0
vn -0.999762 0.0218149 0
vn -0.997859 0.0654031 0
vn -0.997859 0.0654031 0
vn -0.997859 0.0654031 0
vn -0.997859 0.0654031 0
vn -0.997859 0.0654031 0
vn -0.997859 0.0654031 0
vn -0.994056 0.108867 0
vn -0.994056 0.108867 0
vn -0.994056 0.108867 0
vn -0.994056 0.108867 0
vn -0.994056 0.108867 0
vn -0.994056 0.108867 0
vn -0.988362 0.152123 0
vn -0.988362 0.152123 0
vn -0.988362 0.152123 0
vn -0.988362 0.152123 0
vn -0.988362 0.152123 0
vn -0.988362 0.152123 0
vn -0.980785 0.19509 0
vn -0.980785 0.19509 0
vn -0.980785 0.19509 0
vn -0.980785 0.19509 0
vn -0.980785 0.19509 0
vn -0.980785 0.19509 0
vn -0.971342 0.237686 0
vn -0.971342 0.237686 0
vn -0.971342 0.237686 0
vn -0.971342 0.237686 0
vn -0.971342 0.237686 0
vn -0.971342 0.237686 0
vn -0.96005 0.279829 0
vn -0.96005 0.279829 0
vn -0.96005 0.279829 0
vn -0.96005 0.279829 0
vn -0.96005 0.279829 0
vn -0.96005 0.279829 0

# Mesh '<STL_BINARY>' with 52 faces
g <STL_BINARY>
usemtl DefaultMaterial
f  1//1 2//2 3//3
f  4//4 5//5 6//6
f  7//7 8//8 9//9
f  10//10 11//11 12//12
f  13//13 14//14 15//15
f  16//16 17//17 18//18
f  19//19 20//20 21//21
f  22//22 23//23 24//24
f  25//25 26//26 27//27
f  28//28 29//29 30//30
f  31//31 32//32 33//33
f  34//34 35//35 36//36
f  37//37 38//38 39//39
f  40//40 41//41 42//42
f  43//43 44//44 45//45
f  46//46 47//47 48//48
f  49//49 50//50 51//51
f  52//52 53//53 54//54
f  55//55 56//56 57//57
f  58//58 59//59 60//60
f  61//61 62//62 63//63
f  64//64 65//65 66//66
f  67//67 68//68 69//69
f  70//70 71//71 72//72
f  73//73 74//74 75//75
f  76//76 77//77 78//78
f  79//79 80//80 81//81
f  82//82 83//83 84//84
f  85//85 86//86 87//87
f  88//88 89//89 90//90
f  91//91 92//92 93//93
f  94//94 95//95 96//96
f  97//97 98//98 99//99
f  100//100 101//101 102//102
f  103//103 104//104 105//105
f  106//106 107//107 108//108
f  109//109 110//110 111//111
f  112//112 113//113 114//114
f  115//115 116//116 117//117
f  118//118 119//119 120//120
f  121//121 122//122 123//123
f  124//124 125//125 126//126
f  127//127 128//128 129//129
f  130//130 131//131 132//132
f  133//133 134//134 135//135
f  136//136 137//137 138//138
f  139//139 140//140 141//141
f  142//142 143//143 144//144
f  145//145 146//146 147//147
f  148//148 149//149 150//150
f  151//151 152//152 153//153
f  154//154 155//155 156//156

